<?xml version="1.0" standalone="no"?>
<!DOCTYPE svg PUBLIC "-//W3C//DTD SVG 20010904//EN"
 "http://www.w3.org/TR/2001/REC-SVG-20010904/DTD/svg10.dtd">
<svg version="1.0" xmlns="http://www.w3.org/2000/svg"
 width="194.000000pt" height="194.000000pt" viewBox="0 0 194.000000 194.000000"
 preserveAspectRatio="xMidYMid meet">
<metadata>
Created by potrace 1.11, written by Peter Selinger 2001-2013
</metadata>
<g transform="translate(0.000000,194.000000) scale(0.100000,-0.100000)"
fill="#000000" stroke="none">
<path d="M1216 1788 l-129 -72 -32 39 c-22 26 -38 36 -49 32 -23 -9 -20 -27 9
-61 14 -16 25 -32 25 -35 0 -3 -19 -17 -43 -30 -23 -13 -79 -48 -124 -77 l-82
-53 -50 55 c-28 30 -72 82 -97 115 -47 59 -70 72 -80 44 -6 -14 107 -165 155
-209 26 -24 27 -42 1 -56 -11 -6 -65 -47 -121 -91 l-102 -81 -44 48 c-74 82
-216 257 -253 312 -34 51 -52 62 -65 41 -12 -18 112 -188 254 -347 l74 -84
-65 -66 c-61 -63 -91 -96 -152 -167 -14 -16 -26 -36 -26 -42 0 -34 46 -2 158
108 l123 121 22 -20 c12 -12 61 -59 110 -106 l87 -84 -58 -82 c-71 -99 -126
-204 -118 -225 12 -33 37 -10 111 103 43 64 86 127 97 139 l20 22 22 -21 c11
-11 54 -47 94 -81 39 -34 72 -65 72 -69 0 -5 -14 -36 -30 -69 -43 -84 -89
-227 -96 -297 -6 -50 -4 -60 10 -65 21 -8 35 23 78 166 16 53 42 127 58 163
27 60 31 64 48 52 11 -7 68 -53 129 -102 l110 -89 -18 -47 c-49 -130 -82 -327
-65 -394 7 -30 31 -34 44 -9 5 10 17 70 26 133 15 100 51 257 62 269 2 2 46
-24 99 -59 93 -61 131 -71 123 -33 -2 10 -47 51 -100 92 l-96 75 20 51 c11 27
40 92 65 143 43 90 46 93 66 79 104 -67 147 -79 147 -43 0 8 -29 38 -65 66
l-65 52 22 37 c16 27 107 159 124 179 1 2 14 -4 29 -14 23 -15 28 -16 42 -2
13 14 12 18 -8 37 l-23 21 22 29 c21 29 21 61 -1 61 -6 0 -23 -12 -39 -27
l-27 -26 -38 27 c-21 14 -53 39 -72 55 l-34 28 66 53 c37 30 67 60 67 67 0 32
-33 22 -101 -31 -81 -63 -75 -63 -158 12 l-55 49 95 63 c101 68 110 76 102 97
-9 22 -24 16 -132 -57 -87 -57 -108 -67 -120 -57 -9 6 -46 41 -84 77 l-67 65
130 70 c86 46 129 75 127 85 -4 28 -32 19 -161 -52z m14 -297 c0 -4 -33 -30
-73 -59 -40 -29 -87 -66 -105 -83 -18 -17 -36 -29 -41 -27 -18 6 -181 162
-181 172 0 9 42 37 225 152 18 11 27 4 98 -69 42 -45 77 -83 77 -86z m-354
-121 l92 -91 -107 -109 -107 -110 -108 102 -108 102 43 40 c58 56 182 155 193
156 6 0 51 -41 102 -90z m437 -126 l-98 -92 -77 60 c-43 33 -78 64 -78 69 0 5
48 47 106 94 l107 84 69 -62 69 -61 -98 -92z m227 -3 c36 -24 67 -46 69 -47 1
-2 -11 -22 -28 -46 -17 -24 -50 -71 -72 -105 -22 -35 -43 -63 -46 -63 -3 0
-33 20 -67 44 -33 24 -77 54 -97 68 l-37 25 27 29 c70 77 161 155 173 148 7
-4 42 -28 78 -53z m-459 -56 c101 -83 99 -74 37 -152 -30 -37 -69 -90 -88
-118 -18 -27 -35 -52 -36 -54 -4 -4 -94 70 -157 129 l-38 35 102 108 c55 59
103 107 106 107 3 0 36 -25 74 -55z m243 -198 c50 -38 92 -72 94 -76 1 -4 -27
-69 -64 -144 l-66 -137 -38 27 c-113 84 -209 159 -210 164 0 9 89 139 134 195
22 29 45 49 50 46 5 -3 50 -37 100 -75z"/>
</g>
</svg>
